<svg version="1.2" xmlns="http://www.w3.org/2000/svg" viewBox="0 0 16 16" width="16" height="16">
	<title>Icon</title>
	<style>
		.s0 { opacity: .5;fill: none;stroke: #fc7f7f;stroke-miterlimit:100;stroke-width: 3 } 
		.s1 { fill: #fc7f7f } 
	</style>
	<path id="Layer 1" class="s0" d="m8.3 13.5c-3 0-5.3-2.3-5.3-5.3 0-2.9 2.3-5.2 5.3-5.2 2.9 0 5.2 2.3 5.2 5.3 0 2.9-2.3 5.2-5.2 5.2zm-9-4.7v-1h17.6v1zm8.6-9h1v17.7h-1zm-6.4 2.6l0.7-0.7 12.7 12.7-0.7 0.7zm12.5-0.2l0.7 0.7-12.1 12.1-0.7-0.7z"/>
	<path id="Background" class="s1" d="m1.4 15.9l-1.4-1.4 14.5-14.5 1.4 1.4zm10.8-14.9l2.8 2.9-10.2 10.2-2.8-2.9zm-12.2 8.1l2.1-2.2 7 7-2.2 2.1z"/>
</svg>