<svg version="1.2" xmlns="http://www.w3.org/2000/svg" viewBox="0 0 16 16" width="16" height="16">
	<title>Icon</title>
	<style>
		.s0 { fill: none;stroke: #e0e0e0;stroke-miterlimit:100;stroke-width: 1.5 } 
		.s1 { fill: #a0a0a0 } 
	</style>
	<path id="Layer 1" fill-rule="evenodd" class="s0" d="m7.6 11.2c0.2-0.2 0.6-0.2 0.8 0l2.8 2.8c0.2 0.3 0.2 0.6 0 0.8-0.2 0.3-0.6 0.3-0.8 0l-2.4-2.4-2.4 2.4c-0.2 0.3-0.6 0.3-0.8 0-0.2-0.2-0.2-0.5 0-0.8 0 0 2.8-2.8 2.8-2.8zm0.8-6.4c-0.2 0.2-0.6 0.2-0.8 0l-2.8-2.8c-0.2-0.3-0.2-0.6 0-0.8 0.2-0.3 0.6-0.3 0.8 0l2.4 2.4 2.4-2.4c0.2-0.3 0.6-0.3 0.8 0 0.2 0.2 0.2 0.5 0 0.8 0 0-2.8 2.8-2.8 2.8zm-3.6 2.8c0.2 0.2 0.2 0.6 0 0.8l-2.8 2.8c-0.3 0.2-0.6 0.2-0.8 0-0.3-0.2-0.3-0.6 0-0.8l2.4-2.4-2.4-2.4c-0.3-0.2-0.3-0.6 0-0.8 0.2-0.2 0.5-0.2 0.8 0 0 0 2.8 2.8 2.8 2.8zm6.4 0.8c-0.2-0.2-0.2-0.6 0-0.8l2.8-2.8c0.3-0.2 0.6-0.2 0.8 0 0.3 0.2 0.3 0.6 0 0.8l-2.4 2.4 2.4 2.4c0.3 0.2 0.3 0.6 0 0.8-0.2 0.2-0.5 0.2-0.8 0 0 0-2.8-2.8-2.8-2.8z"/>
	<path id="Layer 2" class="s1" d="m4 4.7l0.7-0.7 7.1 7.1-0.7 0.7zm7.2-0.7l0.7 0.7-7.2 7.2-0.7-0.7z"/>
</svg>