<svg version="1.2" xmlns="http://www.w3.org/2000/svg" viewBox="0 0 16 16" width="16" height="16">
	<title>Icon</title>
	<style>
		.s0 { fill: none;stroke: #fc7f7f;stroke-miterlimit:100;stroke-width: 1.5 } 
		.s1 { fill: #cd3838 } 
	</style>
	<path id="Layer 1" fill-rule="evenodd" class="s0" d="m5.7 10.2c0.1-0.1 0.4-0.1 0.5 0l2 2c0.1 0.1 0.1 0.4 0 0.5-0.2 0.2-0.4 0.2-0.6 0l-1.7-1.7-1.7 1.7c-0.1 0.2-0.4 0.2-0.5 0-0.2-0.1-0.2-0.4 0-0.5 0 0 2-2 2-2zm0.5-4.5c-0.1 0.1-0.4 0.1-0.5 0l-2-2c-0.2-0.2-0.2-0.4 0-0.6 0.1-0.1 0.4-0.1 0.5 0l1.7 1.7 1.7-1.7c0.2-0.1 0.4-0.1 0.6 0 0.1 0.2 0.1 0.4 0 0.6 0 0-2 2-2 2zm-2.5 2c0.1 0.1 0.1 0.4 0 0.5l-2 2c-0.2 0.1-0.4 0.1-0.6 0-0.1-0.2-0.1-0.4 0-0.6l1.7-1.7-1.7-1.7c-0.1-0.1-0.1-0.4 0-0.5 0.2-0.2 0.4-0.2 0.6 0 0 0 2 1.9 2 2zm4.5 0.5c-0.1-0.1-0.1-0.4 0-0.5l2-2c0.1-0.2 0.4-0.2 0.5 0 0.2 0.1 0.2 0.4 0 0.5l-1.7 1.7 1.7 1.7c0.2 0.2 0.2 0.4 0 0.6-0.1 0.1-0.4 0.1-0.5 0 0 0-2-2-2-2z"/>
	<path id="Layer 2" class="s1" d="m16 7v2h-2.6v5l-8-6 8-6v5z"/>
</svg>